<?xml version="1.0" encoding="iso-8859-1"?>
<!-- Generator: Adobe Illustrator 19.0.0, SVG Export Plug-In . SVG Version: 6.00 Build 0)  -->
<svg version="1.1" id="Layer_1" xmlns="http://www.w3.org/2000/svg" xmlns:xlink="http://www.w3.org/1999/xlink" x="0px" y="0px"
	 viewBox="0 0 512 512" style="enable-background:new 0 0 512 512;" xml:space="preserve">
<rect x="46.753" y="383.319" style="fill:#983300;" width="45.821" height="116.888"/>
<rect x="434.814" y="383.319" style="fill:#663300;" width="45.821" height="116.888"/>
<polygon style="fill:#424242;" points="96.147,322.55 0,172.262 74.467,55.291 100.115,71.62 36.069,172.222 121.761,306.165 "/>
<path style="fill:#003DA8;" d="M145.687,295.681H91.01l-10.135,65.608l85.763-20.268v-24.39
	C166.638,305.061,157.259,295.681,145.687,295.681z"/>
<path style="fill:#2F91ED;" d="M36.332,295.681c-11.571,0-20.951,9.38-20.951,20.951v24.39l75.628,20.268v-65.609H36.332z"/>
<polygon style="fill:#003DA8;" points="132.566,54.411 89.948,11.794 72.43,29.311 117.825,87.467 "/>
<polygon style="fill:#2F91ED;" points="54.912,46.83 97.53,89.446 121.761,78.642 72.43,29.311 "/>
<polygon style="fill:#FF0F4D;" points="231.278,314.358 231.278,341.022 362.497,361.292 493.714,341.022 493.714,314.358 
	362.497,304.223 "/>
<polygon style="fill:#FF4F67;" points="493.714,287.692 362.497,277.557 231.278,287.692 231.278,314.358 493.714,314.358 "/>
<polygon style="fill:#FF8E00;" points="212.573,183.657 212.573,210.321 343.79,220.456 475.008,210.321 475.008,183.657 
	343.79,173.522 "/>
<rect x="212.573" y="156.993" style="fill:#FFBA00;" width="262.437" height="26.664"/>
<polygon style="fill:#FF8E00;" points="201.072,287.692 493.714,287.692 493.714,264.209 483.579,249.007 229.622,238.872 "/>
<polygon style="fill:#FFBA00;" points="201.072,210.321 239.757,249.007 483.579,249.007 493.714,233.804 493.714,210.321 "/>
<rect x="219.485" y="233.806" style="fill:#FDE09C;" width="274.224" height="30.405"/>
<path style="fill:#D5681E;" d="M239.757,249.007c0-21.366-17.32-38.686-38.686-38.686v77.371
	C222.437,287.692,239.757,270.373,239.757,249.007z"/>
<path style="fill:#2F91ED;" d="M214.978,70.948l-2.148-2.147c-27.866-27.866-73.045-27.866-100.911,0l0,0l18.665,39.614
	l33.938,12.989L214.978,70.948z"/>
<path style="fill:#63C1FF;" d="M111.919,68.8L111.919,68.8c-27.866,27.866-27.866,73.045,0,100.911l2.148,2.147l50.455-50.455
	L111.919,68.8z"/>
<polygon style="fill:#983300;" points="512,341.022 263.691,341.022 243.421,369.218 263.691,397.415 512,397.415 "/>
<rect x="15.382" y="341.025" style="fill:#D5681E;" width="248.309" height="56.392"/>
<g>
</g>
<g>
</g>
<g>
</g>
<g>
</g>
<g>
</g>
<g>
</g>
<g>
</g>
<g>
</g>
<g>
</g>
<g>
</g>
<g>
</g>
<g>
</g>
<g>
</g>
<g>
</g>
<g>
</g>
</svg>
